HIERARCHY
ROOT Hips
{
    OFFSET 0.0 0.0 0.0
    CHANNELS 6 Xposition Yposition Zposition Zrotation Xrotation Yrotation
    JOINT LeftHipJoint
    {
        OFFSET 0.1 0.0 0.0
        CHANNELS 3 Zrotation Xrotation Yrotation
        JOINT LeftUpLeg
        {
            OFFSET 129.14881626110403 0.0 0.0
            CHANNELS 3 Zrotation Xrotation Yrotation
            JOINT LeftLeg
            {
                OFFSET 0.0 0.0 -428.0016151432577
                CHANNELS 3 Zrotation Xrotation Yrotation
                JOINT LeftFoot
                {
                    OFFSET 0.0 0.0 -404.4221943707124
                    CHANNELS 3 Zrotation Xrotation Yrotation
                    End Site
                    {
                        OFFSET 0.0 -0.1 0.0
                    }
                }
            }
        }
    }
    JOINT LowerBack
    {
        OFFSET 0.0 0.0 0.1
        CHANNELS 3 Zrotation Xrotation Yrotation
        JOINT Spine
        {
            OFFSET 0.0 0.0 228.93352955674922
            CHANNELS 3 Zrotation Xrotation Yrotation
            JOINT Spine1
            {
                OFFSET 0.0 0.0 255.42609476433464
                CHANNELS 3 Zrotation Xrotation Yrotation
                JOINT LeftShoulder
                {
                    OFFSET 0.1 0.0 0.0
                    CHANNELS 3 Zrotation Xrotation Yrotation
                    JOINT LeftArm
                    {
                        OFFSET 151.64610011308355 0.0 0.0
                        CHANNELS 3 Zrotation Xrotation Yrotation
                        JOINT LeftForeArm
                        {
                            OFFSET 277.83639649273834 0.0 0.0
                            CHANNELS 3 Zrotation Xrotation Yrotation
                            JOINT LeftHand
                            {
                                OFFSET 252.8018248971477 0.0 0.0
                                CHANNELS 3 Zrotation Xrotation Yrotation
                                End Site
                                {
                                    OFFSET 0.1 0.0 0.0
                                }
                            }
                        }
                    }
                }
                JOINT Neck
                {
                    OFFSET 0.0 0.0 0.1
                    CHANNELS 3 Zrotation Xrotation Yrotation
                    JOINT Neck1
                    {
                        OFFSET 0.0 0.0 112.04960854863039
                        CHANNELS 3 Zrotation Xrotation Yrotation
                        End Site
                        {
                            OFFSET 0.0 0.0 116.10170778602198
                        }
                    }
                }
                JOINT RightShoulder
                {
                    OFFSET -0.1 0.0 0.0
                    CHANNELS 3 Zrotation Xrotation Yrotation
                    JOINT RightArm
                    {
                        OFFSET -151.64610011308355 0.0 0.0
                        CHANNELS 3 Zrotation Xrotation Yrotation
                        JOINT RightForeArm
                        {
                            OFFSET -277.83639649273834 0.0 0.0
                            CHANNELS 3 Zrotation Xrotation Yrotation
                            JOINT RightHand
                            {
                                OFFSET -252.8018248971477 0.0 0.0
                                CHANNELS 3 Zrotation Xrotation Yrotation
                                End Site
                                {
                                    OFFSET -0.1 0.0 0.0
                                }
                            }
                        }
                    }
                }
            }
        }
    }
    JOINT RightHipJoint
    {
        OFFSET -0.1 0.0 0.0
        CHANNELS 3 Zrotation Xrotation Yrotation
        JOINT RightUpLeg
        {
            OFFSET -129.14881626110403 0.0 0.0
            CHANNELS 3 Zrotation Xrotation Yrotation
            JOINT RightLeg
            {
                OFFSET 0.0 0.0 -428.0016151432577
                CHANNELS 3 Zrotation Xrotation Yrotation
                JOINT RightFoot
                {
                    OFFSET 0.0 0.0 -404.4221943707124
                    CHANNELS 3 Zrotation Xrotation Yrotation
                    End Site
                    {
                        OFFSET 0.0 -0.1 0.0
                    }
                }
            }
        }
    }
}
MOTION
Frames: 12
Frame Time: 0.03333333333333333
0.0 0.0 832.7248586497032 23.499356726950985 -16.374117529615432 4.776031822467715 3.1805546814635168e-15 -1.1034765745125397e-32 -3.975693351829396e-16 -0.006319449150509164 4.397530764495502 -0.14706352690131966 -0.13365703301434279 27.966724938631646 -4.745060970831357 -3.1805546814635168e-15 9.93923337957349e-17 -3.975693351829396e-16 3.1805546814635168e-15 -1.1034765745125397e-32 -3.975693351829396e-16 -0.010743905540948982 6.005083193170363 -1.3751235648005438 -2.599942862402667 1.2759456812553695e-15 -3.6871706610368996e-16 0.0 0.0 0.0 -78.24827084607831 13.104400677688187 46.26527424372711 -115.09002074061408 -1.1464988761809403e-14 -2.4717960012408593e-16 0.0 0.0 0.0 0.0 0.0 0.0 -3.1408008852032245 -12.402931819416098 -2.6733443266493038 0.0 0.0 0.0 31.50288196737068 -49.20313663915555 -37.516553889796164 135.23650014679987 2.422156933029144e-15 -5.8819102440361004e-15 0.0 0.0 0.0 3.1805546814635168e-15 -1.1034765745125397e-32 -3.975693351829396e-16 -0.02210620582960176 11.5398550330413 -4.690930528123121 -1.6882611208978766 19.359873276527324 5.383281402497155 0.0 0.0 0.0
0.0 0.0 832.7248586497032 23.481744834346834 -16.378444874637328 4.731960465220216 0.0 0.0 0.0 -0.0017599194692660036 4.5483745435872756 -0.08332991948983132 -0.06641941702453887 27.57972872031018 -4.750781359598993 0.0 0.0 0.0 0.0 0.0 0.0 -0.004360917499114886 6.001088477707543 -1.313674783021271 -2.533056057529775 4.24071736504884e-15 -7.015762903961168e-16 0.0 0.0 -3.975693351829396e-16 -78.3912437367156 13.128091637985545 46.29224950953607 -114.98801603341238 0.0 -0.0 0.0 6.3611093629270335e-15 0.0 0.0 0.0 -3.975693351829396e-16 -3.174361859107857 -12.423923817064084 -2.828295171390629 0.0 0.0 -3.975693351829396e-16 32.307602933107106 -48.53697663785247 -36.84939317932357 135.20584029975882 2.940630983458943e-15 1.2118652981667505e-15 0.0 0.0 0.0 0.0 0.0 0.0 -0.009714263138892378 11.510436755472435 -4.616660717706815 -1.6526948487279982 19.497658562417808 5.3100819512194155 0.0 0.0 -3.975693351829396e-16
0.0 0.0 832.7248586497032 23.430150436252926 -16.32481034289087 4.673428832821713 0.0 0.0 0.0 0.0018336619001575536 4.590384903714518 -0.024697641723855746 -0.012466909358918117 27.57565492124641 -4.746770816060201 0.0 0.0 0.0 0.0 0.0 0.0 0.00031535703004986537 5.968594741172568 -1.262080363836662 -2.501367425491934 1.9005963804142728e-16 4.0181345713504596e-16 0.0 0.0 0.0 -78.33193362475583 13.079749364746135 46.208953237464335 -115.01673265644656 -3.656885160793516e-15 6.099740267393821e-15 -1.590277340731758e-15 6.361109362927033e-15 -1.590277340731758e-15 0.0 0.0 0.0 -3.2437140838445004 -12.604550284155547 -2.989613276320083 0.0 0.0 0.0 33.126552346221885 -47.813331694641164 -36.23979915084376 135.16276020202275 2.940175181238031e-15 1.2129707273514075e-15 0.0 0.0 0.0 0.0 0.0 0.0 -0.0007141555329415038 11.432175782999794 -4.4876482238395425 -1.6135271932128867 19.75791679896465 5.321629914859812 0.0 0.0 3.975693351829396e-16
0.0 0.0 832.7248586497032 23.3652896000685 -16.302110323064298 4.64208688129484 0.0 0.0 0.0 0.005976853370623313 4.64104147525131 -0.001997415130411949 0.02543751011197102 27.409068992338362 -4.802861272026188 0.0 0.0 -3.975693351829396e-16 0.0 0.0 0.0 0.005521174403171407 5.939816220385642 -1.169934606011044 -2.457354310333003 2.5509717832281953e-15 -7.40608929580877e-16 0.0 0.0 0.0 -78.35239340150014 13.111410871094828 46.0602741867668 -115.00185565117356 2.6824802843718617e-15 -1.7088673458568248e-15 0.0 0.0 0.0 0.0 0.0 0.0 -3.3230423090368646 -12.71004979805941 -3.2491693771664973 0.0 0.0 0.0 33.71542637841946 -47.13464965318721 -35.767735733132994 135.2588353450455 -5.362201554938875e-15 4.6718770203322535e-15 0.0 0.0 0.0 0.0 0.0 0.0 0.00931814506042534 11.424147982058829 -4.438321185703228 -1.5970644389049313 19.986621890140754 5.322921218285479 0.0 0.0 7.951386703658792e-16
0.0 0.0 832.7248586497032 23.350211664254324 -16.277149243447365 4.597881358301349 0.0 0.0 0.0 0.005578013190913399 4.6310975809997945 -0.00017064322579270054 0.023137132985268875 27.649561161631617 -4.733334609290322 0.0 0.0 -3.975693351829396e-16 0.0 0.0 0.0 0.004792481252088636 5.904699429099652 -1.11388443857075 -2.454599326118262 5.820021709692792e-17 -3.9641369806304083e-16 0.0 0.0 0.0 -78.36058804796492 13.136433352637216 45.949284162575694 -114.97210600436964 -8.046109640969732e-15 5.128691098273453e-15 0.0 0.0 0.0 0.0 0.0 0.0 -3.230322211990478 -12.86201003630108 -3.3364083247462024 0.0 0.0 0.0 34.71610517597329 -46.048575117657215 -35.031339542411054 135.42994774673926 0.0 0.0 0.0 0.0 0.0 0.0 0.0 0.0 0.007785121036066723 11.407742257152956 -4.367321157445736 -1.5871106605323901 20.144354497263727 5.302329181250493 0.0 0.0 -7.951386703658792e-16
0.0 0.0 832.7248586497032 23.351511877281236 -16.248175142636367 4.571620489743228 0.0 0.0 0.0 0.007978348413237302 4.673047995733271 -0.0022039392372274987 0.036828280172135026 27.742080980721372 -4.6366489093577075 -3.1805546814635168e-15 9.93923337957349e-17 2.758691436281349e-33 0.0 0.0 0.0 0.007618319277014537 5.869288265652418 -1.0609230589470937 -2.4251047439233906 -1.9377165017102584e-15 -4.1014078094681683e-17 5.517382872562698e-33 -1.5902773407317582e-15 3.9756933518293955e-16 -78.39671272139171 13.258470012938613 45.836388134886974 -115.08917892238848 -1.7562417695775533e-14 -3.9078361398674516e-15 0.0 0.0 0.0 5.517382872562698e-33 -1.5902773407317582e-15 3.9756933518293955e-16 -3.1612866236549224 -12.959130649883624 -3.4331926891733047 5.517382872562698e-33 -1.5902773407317582e-15 3.9756933518293955e-16 35.77160493301725 -44.90602708462373 -34.25444658788356 135.70072438484033 2.39830879411508e-15 -5.8916744016610616e-15 -3.1805546814635168e-15 0.0 0.0 0.0 0.0 0.0 0.013150540827123558 11.308604678207976 -4.264267445586322 -1.5582383553392665 20.37976946182383 5.264507400574976 0.0 0.0 7.951386703658792e-16
0.0 0.0 832.7248586497032 23.39124799931098 -16.207516301968358 4.609756578797218 0.0 0.0 0.0 0.011284834178837907 4.632763941181428 -0.06753055878954238 0.024051629520400512 27.751592072649576 -4.6398534625110175 -3.1805546814635168e-15 -1.1034765745125397e-32 3.975693351829396e-16 0.0 0.0 0.0 0.011964824540176186 5.940376549106995 -1.0203669818761019 -2.4110301233176195 1.1014380044995387e-15 -3.744794475305366e-16 -3.1805546814635168e-15 -2.4848083448933725e-17 -6.896728590703373e-34 -78.46209031841157 13.340946268595498 45.65889830752975 -115.22880522884971 9.761129666026191e-15 -2.424794519298147e-15 0.0 0.0 0.0 -3.1805546814635168e-15 -2.4848083448933725e-17 -6.896728590703373e-34 -3.138773005555323 -13.196045312542179 -3.608349921720098 -3.1805546814635168e-15 -2.4848083448933725e-17 -6.896728590703373e-34 36.7232851984541 -43.93478746088521 -33.614337195750764 135.82300620506575 -3.5022099424133016e-15 -8.286250670447844e-15 0.0 0.0 0.0 0.0 0.0 0.0 0.021038128607529908 11.194883618120924 -4.307302091109336 -1.5684366532561624 20.495746852394685 5.359104469645311 0.0 0.0 -2.3854160110976376e-15
0.0 0.0 832.7248586497032 23.40882753016867 -16.125110388970334 4.658870170502694 0.0 0.0 0.0 0.01934632747507166 4.587495966904436 -0.17560963307396624 0.020876897377883705 27.688135800298483 -4.619576227990464 0.0 0.0 3.975693351829396e-16 0.0 0.0 0.0 0.02253518803715119 5.933155894814322 -0.9817649171219921 -2.369205680729924 -5.790479342253345e-17 3.964569587998663e-16 0.0 0.0 0.0 -78.44546412414113 13.363609436723568 45.37030884959942 -115.37182966002362 -1.9528297011086077e-14 4.82521907461063e-15 0.0 0.0 0.0 0.0 0.0 0.0 -3.1869322500213313 -13.44908999330192 -3.858518631008402 0.0 0.0 0.0 37.711380092630506 -43.023072374985475 -32.97568393952449 135.81986893834505 -3.5019830816471968e-15 -8.286346550204907e-15 -3.1805546814635168e-15 0.0 0.0 0.0 0.0 0.0 0.04098991342349219 11.137045680114023 -4.365854995836191 -1.5510190631103895 20.49081595908751 5.415334654118697 0.0 0.0 -7.951386703658792e-16
0.0 0.0 832.7248586497032 23.333882434387817 -16.169692522671273 4.641678010826189 0.0 0.0 0.0 0.018805226289857046 4.694517560091884 -0.18363981737585808 0.010563157317603973 27.61024704119435 -4.677958906769868 0.0 0.0 0.0 0.0 0.0 0.0 0.021354814494942274 5.938628751385304 -0.9241552264088556 -2.323467695630671 -1.9874380687002032e-16 -4.030297788404775e-18 0.0 0.0 0.0 -78.44965165114131 13.495193363579324 45.18615117010252 -115.43490352654489 -1.6987179254099169e-15 -2.6889190191730435e-15 0.0 0.0 1.5902773407317584e-15 0.0 0.0 0.0 -3.236144406266127 -13.56830453959951 -4.080107792735015 0.0 0.0 0.0 38.702042294903286 -42.11540158110604 -32.352969125000214 135.70004055600612 2.9458300447854353e-15 1.1991719764149488e-15 0.0 0.0 -6.361109362927033e-15 0.0 0.0 0.0 0.03874609891474824 11.145801747273085 -4.330131632787304 -1.5390882064775842 20.45516636894315 5.430201156718144 0.0 0.0 -3.975693351829396e-16
0.0 0.0 832.7248586497032 23.35741114391375 -16.28378422491893 4.622467943201396 0.0 0.0 3.975693351829396e-16 0.021822628342301583 4.9314898956388085 -0.10243436501013081 0.06503324465706334 27.304671542291388 -4.87374076653396 0.0 0.0 0.0 0.0 0.0 3.975693351829396e-16 0.02427244644193841 6.032209162140954 -0.8743326507728977 -2.279519947943624 -9.44040355212015e-16 -1.878186088127426e-17 0.0 0.0 0.0 -78.52427860708353 13.443386643988179 45.09859064855599 -115.35516523323564 1.7005885925922184e-15 2.6877363190098676e-15 0.0 0.0 0.0 0.0 0.0 0.0 -3.174798830731317 -13.555923579078662 -4.22710300553585 0.0 0.0 0.0 39.51145741634247 -41.182715070934194 -31.872843708057637 135.5057839307518 -5.352121062330975e-15 4.68342188394881e-15 -3.1805546814635168e-15 -1.5902773407317584e-15 -4.4139062980501586e-32 0.0 0.0 3.975693351829396e-16 0.04426511610669288 11.330752127375138 -4.262872607880155 -1.4958368626320175 20.347281382373477 5.426986858024681 0.0 0.0 0.0
0.0 0.0 832.7248586497032 23.315418873696228 -16.37864584563423 4.68303087237546 0.0 0.0 -3.9756933518293955e-16 0.029662633429891536 5.083280569358655 -0.14694360616037386 0.08280761541972392 27.07033277558835 -4.971575678703046 0.0 0.0 0.0 0.0 0.0 -3.9756933518293955e-16 0.03312804968629043 6.102388955804666 -0.9089953360029785 -2.2132295160858937 -3.433048800899745e-17 -7.959501439842969e-16 0.0 0.0 0.0 -78.66097243031565 13.441739364162734 44.93175421613403 -115.25106832794081 -2.6861903668687187e-15 1.703029475587898e-15 0.0 0.0 0.0 0.0 0.0 0.0 -3.128427898152171 -13.558080654970352 -4.396722299894951 0.0 0.0 0.0 40.58782716710099 -40.08036974538139 -31.22466408020808 135.45625469876754 -5.323995946779319e-16 -7.091980758609277e-15 0.0 0.0 0.0 0.0 0.0 -3.9756933518293955e-16 0.060604495553151845 11.39762796706904 -4.277165147459124 -1.4737496494522184 20.38641837850685 5.382743333768457 0.0 0.0 -7.951386703658792e-16
0.0 0.0 832.7248586497032 23.25249736520879 -16.496763622021966 4.730066941943829 0.0 0.0 0.0 0.03871321036766962 5.3402075622024565 -0.1849767961345845 0.1041484435732906 26.91664279368883 -5.070311110189445 0.0 0.0 -3.975693351829396e-16 0.0 0.0 0.0 0.042373861004876494 6.1928608963556355 -0.8490137857843781 -2.17810643811768 7.107333975650368e-16 -7.817713908475124e-16 0.0 4.9696166897867443e-17 0.0 -78.78436441164875 13.665282148926428 44.72688302581755 -115.13486780261063 2.6844620445806387e-15 -1.705752506369382e-15 0.0 0.0 0.0 0.0 4.9696166897867443e-17 0.0 -3.388007680828443 -13.58557496285176 -4.79509014730646 0.0 4.9696166897867443e-17 0.0 41.57555448332592 -38.77206942660628 -30.660706469984568 135.60355434455872 -9.375973300474154e-15 -1.0696246365168751e-14 0.0 0.0 0.0 0.0 0.0 0.0 0.0774758582130418 11.500927772241551 -4.300655473932658 -1.4597280592325776 20.4891230523792 5.404167691072244 0.0 0.0 -7.951386703658792e-16
